# xmcd
#
# Track frame offsets:
#	182
#	20765
#	36590
#	52995
#	70715
#	88827
#	101257
#	113932
#	132625
#	151742
#	166382
#	181887
#
# Disc length: 2636 seconds
#
# Revision: 0
# Processed by: cddbd v1.4PL0 Copyright (c) Steve Scherf et al.
# Submitted via: EasyCDDAExtractor 4.5.2.1
#
DISCID=9e0a4a0c
DTITLE=Steve Holy - Blue Moon
DYEAR=2000
DGENRE=Country
TTITLE0=Blue Moon
TTITLE1=One Beat At A Time
TTITLE2=Cold Kisses
TTITLE3=Just A Kiss
TTITLE4=The Hunger
TTITLE5=Tear One
TTITLE6=She's So
TTITLE7=You're Gonna Miss My Love
TTITLE8=Someone's Out To Get Me
TTITLE9=If That's What You Want
TTITLE10=Don't Make Me Beg
TTITLE11=Good Morning Beautiful
EXTD=Copyright 2000 Curb Records
EXTT0=
EXTT1=
EXTT2=
EXTT3=
EXTT4=
EXTT5=
EXTT6=
EXTT7=
EXTT8=
EXTT9=
EXTT10=
EXTT11=
PLAYORDER=
